# xmcd
#
# Track frame offsets:
#	183
#	11558
#	24340
#	37553
#	49435
#	59975
#	69333
#	80893
#	94133
#	104010
#	116195
#	124248
#	136478
#	147740
#	157470
#	167863
#	179878
#	192158
#	202860
#	213025
#	222443
#	233570
#	244298
#	254050
#
# Disc length: 3549
#
# Revision: 2
# Processed by: cddbd v1.5.1PL0 Copyright (c) Steve Scherf et al.
# Submitted via: EasyCDDAExtractor 5.1.0
# Normalized: r1:DSETVAR1
#
DISCID=7f0ddb18
DTITLE=Various Artist - Nostalgias CD 2
DYEAR=1900
DGENRE=Oldies
TTITLE0=Bobby Freeman - Do You wanna dance
TTITLE1=Jack Scott - My true love
TTITLE2=Lloyd Price - Stagger Lee
TTITLE3=Jimmie Rodgers - Secretly
TTITLE4=Duane Eddy - Rebel - Rouser
TTITLE5=Richie Valens - La Bamaba
TTITLE6=Bobby Day - Rockin' Robin
TTITLE7=Jonny Maestro - 16 Candles
TTITLE8=The Champs - Tequila
TTITLE9=The Elegants - Little Star
TTITLE10=The Coasters - Yakety Yak
TTITLE11=Bill Haley - See You later Alligator
TTITLE12=Brook Benton - It's just a matter of time
TTITLE13=Duane Eddy - Forty miles of bad road
TTITLE14=The Coasters - Charlie Brown
TTITLE15=Mark Dinning - Teen Angel
TTITLE16=Dion - Runarround Sue
TTITLE17=The Everly Brothers - I kissed You
TTITLE18=Frankie Avalon - Venus
TTITLE19=Dave "Bobby" Cortez - The Happy Organ
TTITLE20=Lloyd Price - Personality
TTITLE21=The Fleetwoods - Come softly to me
TTITLE22=Miss Roni Fisher - The Big Hurt
TTITLE23=The Skyliners - Since I don't have You
EXTD=
EXTT0=
EXTT1=
EXTT2=
EXTT3=
EXTT4=
EXTT5=
EXTT6=
EXTT7=
EXTT8=
EXTT9=
EXTT10=
EXTT11=
EXTT12=
EXTT13=
EXTT14=
EXTT15=
EXTT16=
EXTT17=
EXTT18=
EXTT19=
EXTT20=
EXTT21=
EXTT22=
EXTT23=
PLAYORDER=
